<svg xmlns="http://www.w3.org/2000/svg" version="1.1" xmlns:xlink="http://www.w3.org/1999/xlink" xmlns:svgjs="http://svgjs.com/svgjs" width="600" height="3000" preserveAspectRatio="none" viewBox="0 0 600 3000"><g mask="url(&quot;#SvgjsMask2614&quot;)" fill="none"><rect width="600" height="3000" x="0" y="0" fill="#0e2a47"></rect><path d="M37.43 -20.52L123.17 28.98L123.17 127.98L37.43 177.48L-48.31 127.98L-48.31 28.98zM37.43 573.48L123.17 622.98L123.17 721.98L37.43 771.48L-48.31 721.98L-48.31 622.98zM123.17 1018.98L208.91 1068.48L208.91 1167.48L123.17 1216.98L37.43 1167.48L37.43 1068.48zM37.43 1167.48L123.17 1216.98L123.17 1315.98L37.43 1365.48L-48.31 1315.98L-48.31 1216.98zM37.43 1464.48L123.17 1513.98L123.17 1612.98L37.43 1662.48L-48.31 1612.98L-48.31 1513.98zM37.43 1761.48L123.17 1810.98L123.17 1909.98L37.43 1959.48L-48.31 1909.98L-48.31 1810.98zM37.43 2058.48L123.17 2107.98L123.17 2206.98L37.43 2256.48L-48.31 2206.98L-48.31 2107.98zM123.17 2206.98L208.91 2256.48L208.91 2355.48L123.17 2404.98L37.43 2355.48L37.43 2256.48zM37.43 2355.48L123.17 2404.98L123.17 2503.98L37.43 2553.48L-48.31 2503.98L-48.31 2404.98zM37.43 2652.48L123.17 2701.98L123.17 2800.98L37.43 2850.48L-48.31 2800.98L-48.31 2701.98zM37.43 2949.48L123.17 2998.98L123.17 3097.98L37.43 3147.48L-48.31 3097.98L-48.31 2998.98zM294.65 127.98L380.39 177.48L380.39 276.48L294.65 325.98L208.91 276.48L208.91 177.48zM294.65 424.98L380.39 474.48L380.39 573.48L294.65 622.98L208.91 573.48L208.91 474.48zM294.65 721.98L380.39 771.48L380.39 870.48L294.65 919.98L208.91 870.48L208.91 771.48zM208.91 1464.48L294.65 1513.98L294.65 1612.98L208.91 1662.48L123.17 1612.98L123.17 1513.98zM294.65 1909.98L380.39 1959.48L380.39 2058.48L294.65 2107.98L208.91 2058.48L208.91 1959.48zM208.91 2652.48L294.65 2701.98L294.65 2800.98L208.91 2850.48L123.17 2800.98L123.17 2701.98zM294.65 2800.98L380.39 2850.48L380.39 2949.48L294.65 2998.98L208.91 2949.48L208.91 2850.48zM208.91 2949.48L294.65 2998.98L294.65 3097.98L208.91 3147.48L123.17 3097.98L123.17 2998.98zM380.39 -20.52L466.12 28.98L466.12 127.98L380.39 177.48L294.65 127.98L294.65 28.98zM380.39 276.48L466.12 325.98L466.12 424.98L380.39 474.48L294.65 424.98L294.65 325.98zM466.12 424.98L551.86 474.48L551.86 573.48L466.12 622.98L380.39 573.48L380.39 474.48zM380.39 573.48L466.12 622.98L466.12 721.98L380.39 771.48L294.65 721.98L294.65 622.98zM466.12 721.98L551.86 771.48L551.86 870.48L466.12 919.98L380.39 870.48L380.39 771.48zM380.39 870.48L466.12 919.98L466.12 1018.98L380.39 1068.48L294.65 1018.98L294.65 919.98zM380.39 1167.48L466.12 1216.98L466.12 1315.98L380.39 1365.48L294.65 1315.98L294.65 1216.98zM466.12 1315.98L551.86 1365.48L551.86 1464.48L466.12 1513.98L380.39 1464.48L380.39 1365.48zM380.39 1464.48L466.12 1513.98L466.12 1612.98L380.39 1662.48L294.65 1612.98L294.65 1513.98zM466.12 1909.98L551.86 1959.48L551.86 2058.48L466.12 2107.98L380.39 2058.48L380.39 1959.48zM466.12 2206.98L551.86 2256.48L551.86 2355.48L466.12 2404.98L380.39 2355.48L380.39 2256.48zM380.39 2355.48L466.12 2404.98L466.12 2503.98L380.39 2553.48L294.65 2503.98L294.65 2404.98zM380.39 2652.48L466.12 2701.98L466.12 2800.98L380.39 2850.48L294.65 2800.98L294.65 2701.98zM551.86 -20.52L637.6 28.98L637.6 127.98L551.86 177.48L466.12 127.98L466.12 28.98zM637.6 127.98L723.34 177.48L723.34 276.48L637.6 325.98L551.86 276.48L551.86 177.48zM637.6 424.98L723.34 474.48L723.34 573.48L637.6 622.98L551.86 573.48L551.86 474.48zM551.86 573.48L637.6 622.98L637.6 721.98L551.86 771.48L466.12 721.98L466.12 622.98zM637.6 721.98L723.34 771.48L723.34 870.48L637.6 919.98L551.86 870.48L551.86 771.48zM551.86 870.48L637.6 919.98L637.6 1018.98L551.86 1068.48L466.12 1018.98L466.12 919.98zM637.6 1018.98L723.34 1068.48L723.34 1167.48L637.6 1216.98L551.86 1167.48L551.86 1068.48zM551.86 1167.48L637.6 1216.98L637.6 1315.98L551.86 1365.48L466.12 1315.98L466.12 1216.98zM637.6 1612.98L723.34 1662.48L723.34 1761.48L637.6 1810.98L551.86 1761.48L551.86 1662.48zM551.86 2058.48L637.6 2107.98L637.6 2206.98L551.86 2256.48L466.12 2206.98L466.12 2107.98zM637.6 2206.98L723.34 2256.48L723.34 2355.48L637.6 2404.98L551.86 2355.48L551.86 2256.48zM637.6 2503.98L723.34 2553.48L723.34 2652.48L637.6 2701.98L551.86 2652.48L551.86 2553.48zM637.6 2800.98L723.34 2850.48L723.34 2949.48L637.6 2998.98L551.86 2949.48L551.86 2850.48z" stroke="rgba(19, 129, 23, 1)" stroke-width="2"></path><path d="M27.53 -20.52 a9.9 9.9 0 1 0 19.8 0 a9.9 9.9 0 1 0 -19.8 0zM113.27 28.98 a9.9 9.9 0 1 0 19.8 0 a9.9 9.9 0 1 0 -19.8 0zM113.27 127.98 a9.9 9.9 0 1 0 19.8 0 a9.9 9.9 0 1 0 -19.8 0zM27.53 177.48 a9.9 9.9 0 1 0 19.8 0 a9.9 9.9 0 1 0 -19.8 0zM-58.21 127.98 a9.9 9.9 0 1 0 19.8 0 a9.9 9.9 0 1 0 -19.8 0zM-58.21 28.98 a9.9 9.9 0 1 0 19.8 0 a9.9 9.9 0 1 0 -19.8 0zM27.53 573.48 a9.9 9.9 0 1 0 19.8 0 a9.9 9.9 0 1 0 -19.8 0zM113.27 622.98 a9.9 9.9 0 1 0 19.8 0 a9.9 9.9 0 1 0 -19.8 0zM113.27 721.98 a9.9 9.9 0 1 0 19.8 0 a9.9 9.9 0 1 0 -19.8 0zM27.53 771.48 a9.9 9.9 0 1 0 19.8 0 a9.9 9.9 0 1 0 -19.8 0zM-58.21 721.98 a9.9 9.9 0 1 0 19.8 0 a9.9 9.9 0 1 0 -19.8 0zM-58.21 622.98 a9.9 9.9 0 1 0 19.8 0 a9.9 9.9 0 1 0 -19.8 0zM113.27 1018.98 a9.9 9.9 0 1 0 19.8 0 a9.9 9.9 0 1 0 -19.8 0zM199.01 1068.48 a9.9 9.9 0 1 0 19.8 0 a9.9 9.9 0 1 0 -19.8 0zM199.01 1167.48 a9.9 9.9 0 1 0 19.8 0 a9.9 9.9 0 1 0 -19.8 0zM113.27 1216.98 a9.9 9.9 0 1 0 19.8 0 a9.9 9.9 0 1 0 -19.8 0zM27.53 1167.48 a9.9 9.9 0 1 0 19.8 0 a9.9 9.9 0 1 0 -19.8 0zM27.53 1068.48 a9.9 9.9 0 1 0 19.8 0 a9.9 9.9 0 1 0 -19.8 0zM113.27 1315.98 a9.9 9.9 0 1 0 19.8 0 a9.9 9.9 0 1 0 -19.8 0zM27.53 1365.48 a9.9 9.9 0 1 0 19.8 0 a9.9 9.9 0 1 0 -19.8 0zM-58.21 1315.98 a9.9 9.9 0 1 0 19.8 0 a9.9 9.9 0 1 0 -19.8 0zM-58.21 1216.98 a9.9 9.9 0 1 0 19.8 0 a9.9 9.9 0 1 0 -19.8 0zM27.53 1464.48 a9.9 9.9 0 1 0 19.8 0 a9.9 9.9 0 1 0 -19.8 0zM113.27 1513.98 a9.9 9.9 0 1 0 19.8 0 a9.9 9.9 0 1 0 -19.8 0zM113.27 1612.98 a9.9 9.9 0 1 0 19.8 0 a9.9 9.9 0 1 0 -19.8 0zM27.53 1662.48 a9.9 9.9 0 1 0 19.8 0 a9.9 9.9 0 1 0 -19.8 0zM-58.21 1612.98 a9.9 9.9 0 1 0 19.8 0 a9.9 9.9 0 1 0 -19.8 0zM-58.21 1513.98 a9.9 9.9 0 1 0 19.8 0 a9.9 9.9 0 1 0 -19.8 0zM27.53 1761.48 a9.9 9.9 0 1 0 19.8 0 a9.9 9.9 0 1 0 -19.8 0zM113.27 1810.98 a9.9 9.9 0 1 0 19.8 0 a9.9 9.9 0 1 0 -19.8 0zM113.27 1909.98 a9.9 9.9 0 1 0 19.8 0 a9.9 9.9 0 1 0 -19.8 0zM27.53 1959.48 a9.9 9.9 0 1 0 19.8 0 a9.9 9.9 0 1 0 -19.8 0zM-58.21 1909.98 a9.9 9.9 0 1 0 19.8 0 a9.9 9.9 0 1 0 -19.8 0zM-58.21 1810.98 a9.9 9.9 0 1 0 19.8 0 a9.9 9.9 0 1 0 -19.8 0zM27.53 2058.48 a9.9 9.9 0 1 0 19.8 0 a9.9 9.9 0 1 0 -19.8 0zM113.27 2107.98 a9.9 9.9 0 1 0 19.8 0 a9.9 9.9 0 1 0 -19.8 0zM113.27 2206.98 a9.9 9.9 0 1 0 19.8 0 a9.9 9.9 0 1 0 -19.8 0zM27.53 2256.48 a9.9 9.9 0 1 0 19.8 0 a9.9 9.9 0 1 0 -19.8 0zM-58.21 2206.98 a9.9 9.9 0 1 0 19.8 0 a9.9 9.9 0 1 0 -19.8 0zM-58.21 2107.98 a9.9 9.9 0 1 0 19.8 0 a9.9 9.9 0 1 0 -19.8 0zM199.01 2256.48 a9.9 9.9 0 1 0 19.8 0 a9.9 9.9 0 1 0 -19.8 0zM199.01 2355.48 a9.9 9.9 0 1 0 19.8 0 a9.9 9.9 0 1 0 -19.8 0zM113.27 2404.98 a9.9 9.9 0 1 0 19.8 0 a9.9 9.9 0 1 0 -19.8 0zM27.53 2355.48 a9.9 9.9 0 1 0 19.8 0 a9.9 9.9 0 1 0 -19.8 0zM113.27 2503.98 a9.9 9.9 0 1 0 19.8 0 a9.9 9.9 0 1 0 -19.8 0zM27.53 2553.48 a9.9 9.9 0 1 0 19.8 0 a9.9 9.9 0 1 0 -19.8 0zM-58.21 2503.98 a9.9 9.9 0 1 0 19.8 0 a9.9 9.9 0 1 0 -19.8 0zM-58.21 2404.98 a9.9 9.9 0 1 0 19.8 0 a9.9 9.9 0 1 0 -19.8 0zM27.53 2652.48 a9.9 9.9 0 1 0 19.8 0 a9.9 9.9 0 1 0 -19.8 0zM113.27 2701.98 a9.9 9.9 0 1 0 19.8 0 a9.9 9.9 0 1 0 -19.8 0zM113.27 2800.98 a9.9 9.9 0 1 0 19.8 0 a9.9 9.9 0 1 0 -19.8 0zM27.53 2850.48 a9.9 9.9 0 1 0 19.8 0 a9.9 9.9 0 1 0 -19.8 0zM-58.21 2800.98 a9.9 9.9 0 1 0 19.8 0 a9.9 9.9 0 1 0 -19.8 0zM-58.21 2701.98 a9.9 9.9 0 1 0 19.8 0 a9.9 9.9 0 1 0 -19.8 0zM27.53 2949.48 a9.9 9.9 0 1 0 19.8 0 a9.9 9.9 0 1 0 -19.8 0zM113.27 2998.98 a9.9 9.9 0 1 0 19.8 0 a9.9 9.9 0 1 0 -19.8 0zM113.27 3097.98 a9.9 9.9 0 1 0 19.8 0 a9.9 9.9 0 1 0 -19.8 0zM27.53 3147.48 a9.9 9.9 0 1 0 19.8 0 a9.9 9.9 0 1 0 -19.8 0zM-58.21 3097.98 a9.9 9.9 0 1 0 19.8 0 a9.9 9.9 0 1 0 -19.8 0zM-58.21 2998.98 a9.9 9.9 0 1 0 19.8 0 a9.9 9.9 0 1 0 -19.8 0zM284.75 127.98 a9.9 9.9 0 1 0 19.8 0 a9.9 9.9 0 1 0 -19.8 0zM370.49 177.48 a9.9 9.9 0 1 0 19.8 0 a9.9 9.9 0 1 0 -19.8 0zM370.49 276.48 a9.9 9.9 0 1 0 19.8 0 a9.9 9.9 0 1 0 -19.8 0zM284.75 325.98 a9.9 9.9 0 1 0 19.8 0 a9.9 9.9 0 1 0 -19.8 0zM199.01 276.48 a9.9 9.9 0 1 0 19.8 0 a9.9 9.9 0 1 0 -19.8 0zM199.01 177.48 a9.9 9.9 0 1 0 19.8 0 a9.9 9.9 0 1 0 -19.8 0zM284.75 424.98 a9.9 9.9 0 1 0 19.8 0 a9.9 9.9 0 1 0 -19.8 0zM370.49 474.48 a9.9 9.9 0 1 0 19.8 0 a9.9 9.9 0 1 0 -19.8 0zM370.49 573.48 a9.9 9.9 0 1 0 19.8 0 a9.9 9.9 0 1 0 -19.8 0zM284.75 622.98 a9.9 9.9 0 1 0 19.8 0 a9.9 9.9 0 1 0 -19.8 0zM199.01 573.48 a9.9 9.9 0 1 0 19.8 0 a9.9 9.9 0 1 0 -19.8 0zM199.01 474.48 a9.9 9.9 0 1 0 19.8 0 a9.9 9.9 0 1 0 -19.8 0zM284.75 721.98 a9.9 9.9 0 1 0 19.8 0 a9.9 9.9 0 1 0 -19.8 0zM370.49 771.48 a9.9 9.9 0 1 0 19.8 0 a9.9 9.9 0 1 0 -19.8 0zM370.49 870.48 a9.9 9.9 0 1 0 19.8 0 a9.9 9.9 0 1 0 -19.8 0zM284.75 919.98 a9.9 9.9 0 1 0 19.8 0 a9.9 9.9 0 1 0 -19.8 0zM199.01 870.48 a9.9 9.9 0 1 0 19.8 0 a9.9 9.9 0 1 0 -19.8 0zM199.01 771.48 a9.9 9.9 0 1 0 19.8 0 a9.9 9.9 0 1 0 -19.8 0zM199.01 1464.48 a9.9 9.9 0 1 0 19.8 0 a9.9 9.9 0 1 0 -19.8 0zM284.75 1513.98 a9.9 9.9 0 1 0 19.8 0 a9.9 9.9 0 1 0 -19.8 0zM284.75 1612.98 a9.9 9.9 0 1 0 19.8 0 a9.9 9.9 0 1 0 -19.8 0zM199.01 1662.48 a9.9 9.9 0 1 0 19.8 0 a9.9 9.9 0 1 0 -19.8 0zM284.75 1909.98 a9.9 9.9 0 1 0 19.8 0 a9.9 9.9 0 1 0 -19.8 0zM370.49 1959.48 a9.9 9.9 0 1 0 19.8 0 a9.9 9.9 0 1 0 -19.8 0zM370.49 2058.48 a9.9 9.9 0 1 0 19.8 0 a9.9 9.9 0 1 0 -19.8 0zM284.75 2107.98 a9.9 9.9 0 1 0 19.8 0 a9.9 9.9 0 1 0 -19.8 0zM199.01 2058.48 a9.9 9.9 0 1 0 19.8 0 a9.9 9.9 0 1 0 -19.8 0zM199.01 1959.48 a9.9 9.9 0 1 0 19.8 0 a9.9 9.9 0 1 0 -19.8 0zM199.01 2652.48 a9.9 9.9 0 1 0 19.8 0 a9.9 9.9 0 1 0 -19.8 0zM284.75 2701.98 a9.9 9.9 0 1 0 19.8 0 a9.9 9.9 0 1 0 -19.8 0zM284.75 2800.98 a9.9 9.9 0 1 0 19.8 0 a9.9 9.9 0 1 0 -19.8 0zM199.01 2850.48 a9.9 9.9 0 1 0 19.8 0 a9.9 9.9 0 1 0 -19.8 0zM370.49 2850.48 a9.9 9.9 0 1 0 19.8 0 a9.9 9.9 0 1 0 -19.8 0zM370.49 2949.48 a9.9 9.9 0 1 0 19.8 0 a9.9 9.9 0 1 0 -19.8 0zM284.75 2998.98 a9.9 9.9 0 1 0 19.8 0 a9.9 9.9 0 1 0 -19.8 0zM199.01 2949.48 a9.9 9.9 0 1 0 19.8 0 a9.9 9.9 0 1 0 -19.8 0zM284.75 3097.98 a9.9 9.9 0 1 0 19.8 0 a9.9 9.9 0 1 0 -19.8 0zM199.01 3147.48 a9.9 9.9 0 1 0 19.8 0 a9.9 9.9 0 1 0 -19.8 0zM370.49 -20.52 a9.9 9.9 0 1 0 19.8 0 a9.9 9.9 0 1 0 -19.8 0zM456.22 28.98 a9.9 9.9 0 1 0 19.8 0 a9.9 9.9 0 1 0 -19.8 0zM456.22 127.98 a9.9 9.9 0 1 0 19.8 0 a9.9 9.9 0 1 0 -19.8 0zM284.75 28.98 a9.9 9.9 0 1 0 19.8 0 a9.9 9.9 0 1 0 -19.8 0zM456.22 325.98 a9.9 9.9 0 1 0 19.8 0 a9.9 9.9 0 1 0 -19.8 0zM456.22 424.98 a9.9 9.9 0 1 0 19.8 0 a9.9 9.9 0 1 0 -19.8 0zM541.96 474.48 a9.9 9.9 0 1 0 19.8 0 a9.9 9.9 0 1 0 -19.8 0zM541.96 573.48 a9.9 9.9 0 1 0 19.8 0 a9.9 9.9 0 1 0 -19.8 0zM456.22 622.98 a9.9 9.9 0 1 0 19.8 0 a9.9 9.9 0 1 0 -19.8 0zM456.22 721.98 a9.9 9.9 0 1 0 19.8 0 a9.9 9.9 0 1 0 -19.8 0zM541.96 771.48 a9.9 9.9 0 1 0 19.8 0 a9.9 9.9 0 1 0 -19.8 0zM541.96 870.48 a9.9 9.9 0 1 0 19.8 0 a9.9 9.9 0 1 0 -19.8 0zM456.22 919.98 a9.9 9.9 0 1 0 19.8 0 a9.9 9.9 0 1 0 -19.8 0zM456.22 1018.98 a9.9 9.9 0 1 0 19.8 0 a9.9 9.9 0 1 0 -19.8 0zM370.49 1068.48 a9.9 9.9 0 1 0 19.8 0 a9.9 9.9 0 1 0 -19.8 0zM284.75 1018.98 a9.9 9.9 0 1 0 19.8 0 a9.9 9.9 0 1 0 -19.8 0zM370.49 1167.48 a9.9 9.9 0 1 0 19.8 0 a9.9 9.9 0 1 0 -19.8 0zM456.22 1216.98 a9.9 9.9 0 1 0 19.8 0 a9.9 9.9 0 1 0 -19.8 0zM456.22 1315.98 a9.9 9.9 0 1 0 19.8 0 a9.9 9.9 0 1 0 -19.8 0zM370.49 1365.48 a9.9 9.9 0 1 0 19.8 0 a9.9 9.9 0 1 0 -19.8 0zM284.75 1315.98 a9.9 9.9 0 1 0 19.8 0 a9.9 9.9 0 1 0 -19.8 0zM284.75 1216.98 a9.9 9.9 0 1 0 19.8 0 a9.9 9.9 0 1 0 -19.8 0zM541.96 1365.48 a9.9 9.9 0 1 0 19.8 0 a9.9 9.9 0 1 0 -19.8 0zM541.96 1464.48 a9.9 9.9 0 1 0 19.8 0 a9.9 9.9 0 1 0 -19.8 0zM456.22 1513.98 a9.9 9.9 0 1 0 19.8 0 a9.9 9.9 0 1 0 -19.8 0zM370.49 1464.48 a9.9 9.9 0 1 0 19.8 0 a9.9 9.9 0 1 0 -19.8 0zM456.22 1612.98 a9.9 9.9 0 1 0 19.8 0 a9.9 9.9 0 1 0 -19.8 0zM370.49 1662.48 a9.9 9.9 0 1 0 19.8 0 a9.9 9.9 0 1 0 -19.8 0zM456.22 1909.98 a9.9 9.9 0 1 0 19.8 0 a9.9 9.9 0 1 0 -19.8 0zM541.96 1959.48 a9.9 9.9 0 1 0 19.8 0 a9.9 9.9 0 1 0 -19.8 0zM541.96 2058.48 a9.9 9.9 0 1 0 19.8 0 a9.9 9.9 0 1 0 -19.8 0zM456.22 2107.98 a9.9 9.9 0 1 0 19.8 0 a9.9 9.9 0 1 0 -19.8 0zM456.22 2206.98 a9.9 9.9 0 1 0 19.8 0 a9.9 9.9 0 1 0 -19.8 0zM541.96 2256.48 a9.9 9.9 0 1 0 19.8 0 a9.9 9.9 0 1 0 -19.8 0zM541.96 2355.48 a9.9 9.9 0 1 0 19.8 0 a9.9 9.9 0 1 0 -19.8 0zM456.22 2404.98 a9.9 9.9 0 1 0 19.8 0 a9.9 9.9 0 1 0 -19.8 0zM370.49 2355.48 a9.9 9.9 0 1 0 19.8 0 a9.9 9.9 0 1 0 -19.8 0zM370.49 2256.48 a9.9 9.9 0 1 0 19.8 0 a9.9 9.9 0 1 0 -19.8 0zM456.22 2503.98 a9.9 9.9 0 1 0 19.8 0 a9.9 9.9 0 1 0 -19.8 0zM370.49 2553.48 a9.9 9.9 0 1 0 19.8 0 a9.9 9.9 0 1 0 -19.8 0zM284.75 2503.98 a9.9 9.9 0 1 0 19.8 0 a9.9 9.9 0 1 0 -19.8 0zM284.75 2404.98 a9.9 9.9 0 1 0 19.8 0 a9.9 9.9 0 1 0 -19.8 0zM370.49 2652.48 a9.9 9.9 0 1 0 19.8 0 a9.9 9.9 0 1 0 -19.8 0zM456.22 2701.98 a9.9 9.9 0 1 0 19.8 0 a9.9 9.9 0 1 0 -19.8 0zM456.22 2800.98 a9.9 9.9 0 1 0 19.8 0 a9.9 9.9 0 1 0 -19.8 0zM541.96 -20.52 a9.9 9.9 0 1 0 19.8 0 a9.9 9.9 0 1 0 -19.8 0zM627.7 28.98 a9.9 9.9 0 1 0 19.8 0 a9.9 9.9 0 1 0 -19.8 0zM627.7 127.98 a9.9 9.9 0 1 0 19.8 0 a9.9 9.9 0 1 0 -19.8 0zM541.96 177.48 a9.9 9.9 0 1 0 19.8 0 a9.9 9.9 0 1 0 -19.8 0zM713.44 177.48 a9.9 9.9 0 1 0 19.8 0 a9.9 9.9 0 1 0 -19.8 0zM713.44 276.48 a9.9 9.9 0 1 0 19.8 0 a9.9 9.9 0 1 0 -19.8 0zM627.7 325.98 a9.9 9.9 0 1 0 19.8 0 a9.9 9.9 0 1 0 -19.8 0zM541.96 276.48 a9.9 9.9 0 1 0 19.8 0 a9.9 9.9 0 1 0 -19.8 0zM627.7 424.98 a9.9 9.9 0 1 0 19.8 0 a9.9 9.9 0 1 0 -19.8 0zM713.44 474.48 a9.9 9.9 0 1 0 19.8 0 a9.9 9.9 0 1 0 -19.8 0zM713.44 573.48 a9.9 9.9 0 1 0 19.8 0 a9.9 9.9 0 1 0 -19.8 0zM627.7 622.98 a9.9 9.9 0 1 0 19.8 0 a9.9 9.9 0 1 0 -19.8 0zM627.7 721.98 a9.9 9.9 0 1 0 19.8 0 a9.9 9.9 0 1 0 -19.8 0zM713.44 771.48 a9.9 9.9 0 1 0 19.8 0 a9.9 9.9 0 1 0 -19.8 0zM713.44 870.48 a9.9 9.9 0 1 0 19.8 0 a9.9 9.9 0 1 0 -19.8 0zM627.7 919.98 a9.9 9.9 0 1 0 19.8 0 a9.9 9.9 0 1 0 -19.8 0zM627.7 1018.98 a9.9 9.9 0 1 0 19.8 0 a9.9 9.9 0 1 0 -19.8 0zM541.96 1068.48 a9.9 9.9 0 1 0 19.8 0 a9.9 9.9 0 1 0 -19.8 0zM713.44 1068.48 a9.9 9.9 0 1 0 19.8 0 a9.9 9.9 0 1 0 -19.8 0zM713.44 1167.48 a9.9 9.9 0 1 0 19.8 0 a9.9 9.9 0 1 0 -19.8 0zM627.7 1216.98 a9.9 9.9 0 1 0 19.8 0 a9.9 9.9 0 1 0 -19.8 0zM541.96 1167.48 a9.9 9.9 0 1 0 19.8 0 a9.9 9.9 0 1 0 -19.8 0zM627.7 1315.98 a9.9 9.9 0 1 0 19.8 0 a9.9 9.9 0 1 0 -19.8 0zM627.7 1612.98 a9.9 9.9 0 1 0 19.8 0 a9.9 9.9 0 1 0 -19.8 0zM713.44 1662.48 a9.9 9.9 0 1 0 19.8 0 a9.9 9.9 0 1 0 -19.8 0zM713.44 1761.48 a9.9 9.9 0 1 0 19.8 0 a9.9 9.9 0 1 0 -19.8 0zM627.7 1810.98 a9.9 9.9 0 1 0 19.8 0 a9.9 9.9 0 1 0 -19.8 0zM541.96 1761.48 a9.9 9.9 0 1 0 19.8 0 a9.9 9.9 0 1 0 -19.8 0zM541.96 1662.48 a9.9 9.9 0 1 0 19.8 0 a9.9 9.9 0 1 0 -19.8 0zM627.7 2107.98 a9.9 9.9 0 1 0 19.8 0 a9.9 9.9 0 1 0 -19.8 0zM627.7 2206.98 a9.9 9.9 0 1 0 19.8 0 a9.9 9.9 0 1 0 -19.8 0zM713.44 2256.48 a9.9 9.9 0 1 0 19.8 0 a9.9 9.9 0 1 0 -19.8 0zM713.44 2355.48 a9.9 9.9 0 1 0 19.8 0 a9.9 9.9 0 1 0 -19.8 0zM627.7 2404.98 a9.9 9.9 0 1 0 19.8 0 a9.9 9.9 0 1 0 -19.8 0zM627.7 2503.98 a9.9 9.9 0 1 0 19.8 0 a9.9 9.9 0 1 0 -19.8 0zM713.44 2553.48 a9.9 9.9 0 1 0 19.8 0 a9.9 9.9 0 1 0 -19.8 0zM713.44 2652.48 a9.9 9.9 0 1 0 19.8 0 a9.9 9.9 0 1 0 -19.8 0zM627.7 2701.98 a9.9 9.9 0 1 0 19.8 0 a9.9 9.9 0 1 0 -19.8 0zM541.96 2652.48 a9.9 9.9 0 1 0 19.8 0 a9.9 9.9 0 1 0 -19.8 0zM541.96 2553.48 a9.9 9.9 0 1 0 19.8 0 a9.9 9.9 0 1 0 -19.8 0zM627.7 2800.98 a9.9 9.9 0 1 0 19.8 0 a9.9 9.9 0 1 0 -19.8 0zM713.44 2850.48 a9.9 9.9 0 1 0 19.8 0 a9.9 9.9 0 1 0 -19.8 0zM713.44 2949.48 a9.9 9.9 0 1 0 19.8 0 a9.9 9.9 0 1 0 -19.8 0zM627.7 2998.98 a9.9 9.9 0 1 0 19.8 0 a9.9 9.9 0 1 0 -19.8 0zM541.96 2949.48 a9.9 9.9 0 1 0 19.8 0 a9.9 9.9 0 1 0 -19.8 0zM541.96 2850.48 a9.9 9.9 0 1 0 19.8 0 a9.9 9.9 0 1 0 -19.8 0z" fill="rgba(19, 129, 23, 1)"></path><path d="M52.88 136.67L110.91 170.17L110.91 237.17L52.88 270.67L-5.15 237.17L-5.15 170.17zM110.91 1845.17L168.93 1878.67L168.93 1945.67L110.91 1979.17L52.88 1945.67L52.88 1878.67zM110.91 2649.17L168.93 2682.67L168.93 2749.67L110.91 2783.17L52.88 2749.67L52.88 2682.67zM226.96 639.17L284.98 672.67L284.98 739.67L226.96 773.17L168.93 739.67L168.93 672.67zM168.93 1141.67L226.96 1175.17L226.96 1242.17L168.93 1275.67L110.91 1242.17L110.91 1175.17zM226.96 1242.17L284.98 1275.67L284.98 1342.67L226.96 1376.17L168.93 1342.67L168.93 1275.67zM168.93 1744.67L226.96 1778.17L226.96 1845.17L168.93 1878.67L110.91 1845.17L110.91 1778.17zM168.93 2347.67L226.96 2381.17L226.96 2448.17L168.93 2481.67L110.91 2448.17L110.91 2381.17zM343.01 438.17L401.03 471.67L401.03 538.67L343.01 572.17L284.98 538.67L284.98 471.67zM284.98 538.67L343.01 572.17L343.01 639.17L284.98 672.67L226.96 639.17L226.96 572.17zM343.01 1242.17L401.03 1275.67L401.03 1342.67L343.01 1376.17L284.98 1342.67L284.98 1275.67zM284.98 2347.67L343.01 2381.17L343.01 2448.17L284.98 2481.67L226.96 2448.17L226.96 2381.17zM284.98 2548.67L343.01 2582.17L343.01 2649.17L284.98 2682.67L226.96 2649.17L226.96 2582.17zM401.03 136.67L459.06 170.17L459.06 237.17L401.03 270.67L343.01 237.17L343.01 170.17zM459.06 237.17L517.08 270.67L517.08 337.67L459.06 371.17L401.03 337.67L401.03 270.67zM459.06 2850.17L517.08 2883.67L517.08 2950.67L459.06 2984.17L401.03 2950.67L401.03 2883.67zM517.08 -64.33L575.11 -30.83L575.11 36.17L517.08 69.67L459.06 36.17L459.06 -30.83zM517.08 538.67L575.11 572.17L575.11 639.17L517.08 672.67L459.06 639.17L459.06 572.17zM575.11 840.17L633.13 873.67L633.13 940.67L575.11 974.17L517.08 940.67L517.08 873.67zM517.08 1141.67L575.11 1175.17L575.11 1242.17L517.08 1275.67L459.06 1242.17L459.06 1175.17zM517.08 1342.67L575.11 1376.17L575.11 1443.17L517.08 1476.67L459.06 1443.17L459.06 1376.17zM517.08 2548.67L575.11 2582.17L575.11 2649.17L517.08 2682.67L459.06 2649.17L459.06 2582.17zM633.13 -64.33L691.16 -30.83L691.16 36.17L633.13 69.67L575.11 36.17L575.11 -30.83zM633.13 136.67L691.16 170.17L691.16 237.17L633.13 270.67L575.11 237.17L575.11 170.17zM691.16 237.17L749.18 270.67L749.18 337.67L691.16 371.17L633.13 337.67L633.13 270.67zM633.13 337.67L691.16 371.17L691.16 438.17L633.13 471.67L575.11 438.17L575.11 371.17zM691.16 438.17L749.18 471.67L749.18 538.67L691.16 572.17L633.13 538.67L633.13 471.67zM691.16 639.17L749.18 672.67L749.18 739.67L691.16 773.17L633.13 739.67L633.13 672.67zM633.13 739.67L691.16 773.17L691.16 840.17L633.13 873.67L575.11 840.17L575.11 773.17zM633.13 1141.67L691.16 1175.17L691.16 1242.17L633.13 1275.67L575.11 1242.17L575.11 1175.17zM691.16 1242.17L749.18 1275.67L749.18 1342.67L691.16 1376.17L633.13 1342.67L633.13 1275.67zM691.16 1644.17L749.18 1677.67L749.18 1744.67L691.16 1778.17L633.13 1744.67L633.13 1677.67zM633.13 2548.67L691.16 2582.17L691.16 2649.17L633.13 2682.67L575.11 2649.17L575.11 2582.17z" stroke="url(#SvgjsLinearGradient2615)" stroke-width="2"></path><path d="M95.85 358.16L209.3 423.66L209.3 554.66L95.85 620.16L-17.6 554.66L-17.6 423.66zM209.3 1733.66L322.76 1799.16L322.76 1930.16L209.3 1995.66L95.85 1930.16L95.85 1799.16zM322.76 -34.84L436.21 30.66L436.21 161.66L322.76 227.16L209.3 161.66L209.3 30.66zM322.76 358.16L436.21 423.66L436.21 554.66L322.76 620.16L209.3 554.66L209.3 423.66zM549.66 -34.84L663.11 30.66L663.11 161.66L549.66 227.16L436.21 161.66L436.21 30.66zM549.66 1930.16L663.11 1995.66L663.11 2126.66L549.66 2192.16L436.21 2126.66L436.21 1995.66zM549.66 2716.16L663.11 2781.66L663.11 2912.66L549.66 2978.16L436.21 2912.66L436.21 2781.66zM663.11 2912.66L776.57 2978.16L776.57 3109.16L663.11 3174.66L549.66 3109.16L549.66 2978.16z" stroke="url(#SvgjsLinearGradient2616)" stroke-width="2"></path><path d="M82.75 358.16 a13.1 13.1 0 1 0 26.2 0 a13.1 13.1 0 1 0 -26.2 0zM196.2 423.66 a13.1 13.1 0 1 0 26.2 0 a13.1 13.1 0 1 0 -26.2 0zM196.2 554.66 a13.1 13.1 0 1 0 26.2 0 a13.1 13.1 0 1 0 -26.2 0zM82.75 620.16 a13.1 13.1 0 1 0 26.2 0 a13.1 13.1 0 1 0 -26.2 0zM-30.7 554.66 a13.1 13.1 0 1 0 26.2 0 a13.1 13.1 0 1 0 -26.2 0zM-30.7 423.66 a13.1 13.1 0 1 0 26.2 0 a13.1 13.1 0 1 0 -26.2 0zM196.2 1733.66 a13.1 13.1 0 1 0 26.2 0 a13.1 13.1 0 1 0 -26.2 0zM309.66 1799.16 a13.1 13.1 0 1 0 26.2 0 a13.1 13.1 0 1 0 -26.2 0zM309.66 1930.16 a13.1 13.1 0 1 0 26.2 0 a13.1 13.1 0 1 0 -26.2 0zM196.2 1995.66 a13.1 13.1 0 1 0 26.2 0 a13.1 13.1 0 1 0 -26.2 0zM82.75 1930.16 a13.1 13.1 0 1 0 26.2 0 a13.1 13.1 0 1 0 -26.2 0zM82.75 1799.16 a13.1 13.1 0 1 0 26.2 0 a13.1 13.1 0 1 0 -26.2 0zM309.66 -34.84 a13.1 13.1 0 1 0 26.2 0 a13.1 13.1 0 1 0 -26.2 0zM423.11 30.66 a13.1 13.1 0 1 0 26.2 0 a13.1 13.1 0 1 0 -26.2 0zM423.11 161.66 a13.1 13.1 0 1 0 26.2 0 a13.1 13.1 0 1 0 -26.2 0zM309.66 227.16 a13.1 13.1 0 1 0 26.2 0 a13.1 13.1 0 1 0 -26.2 0zM196.2 161.66 a13.1 13.1 0 1 0 26.2 0 a13.1 13.1 0 1 0 -26.2 0zM196.2 30.66 a13.1 13.1 0 1 0 26.2 0 a13.1 13.1 0 1 0 -26.2 0zM309.66 358.16 a13.1 13.1 0 1 0 26.2 0 a13.1 13.1 0 1 0 -26.2 0zM423.11 423.66 a13.1 13.1 0 1 0 26.2 0 a13.1 13.1 0 1 0 -26.2 0zM423.11 554.66 a13.1 13.1 0 1 0 26.2 0 a13.1 13.1 0 1 0 -26.2 0zM309.66 620.16 a13.1 13.1 0 1 0 26.2 0 a13.1 13.1 0 1 0 -26.2 0zM536.56 -34.84 a13.1 13.1 0 1 0 26.2 0 a13.1 13.1 0 1 0 -26.2 0zM650.01 30.66 a13.1 13.1 0 1 0 26.2 0 a13.1 13.1 0 1 0 -26.2 0zM650.01 161.66 a13.1 13.1 0 1 0 26.2 0 a13.1 13.1 0 1 0 -26.2 0zM536.56 227.16 a13.1 13.1 0 1 0 26.2 0 a13.1 13.1 0 1 0 -26.2 0zM536.56 1930.16 a13.1 13.1 0 1 0 26.2 0 a13.1 13.1 0 1 0 -26.2 0zM650.01 1995.66 a13.1 13.1 0 1 0 26.2 0 a13.1 13.1 0 1 0 -26.2 0zM650.01 2126.66 a13.1 13.1 0 1 0 26.2 0 a13.1 13.1 0 1 0 -26.2 0zM536.56 2192.16 a13.1 13.1 0 1 0 26.2 0 a13.1 13.1 0 1 0 -26.2 0zM423.11 2126.66 a13.1 13.1 0 1 0 26.2 0 a13.1 13.1 0 1 0 -26.2 0zM423.11 1995.66 a13.1 13.1 0 1 0 26.2 0 a13.1 13.1 0 1 0 -26.2 0zM536.56 2716.16 a13.1 13.1 0 1 0 26.2 0 a13.1 13.1 0 1 0 -26.2 0zM650.01 2781.66 a13.1 13.1 0 1 0 26.2 0 a13.1 13.1 0 1 0 -26.2 0zM650.01 2912.66 a13.1 13.1 0 1 0 26.2 0 a13.1 13.1 0 1 0 -26.2 0zM536.56 2978.16 a13.1 13.1 0 1 0 26.2 0 a13.1 13.1 0 1 0 -26.2 0zM423.11 2912.66 a13.1 13.1 0 1 0 26.2 0 a13.1 13.1 0 1 0 -26.2 0zM423.11 2781.66 a13.1 13.1 0 1 0 26.2 0 a13.1 13.1 0 1 0 -26.2 0zM763.47 2978.16 a13.1 13.1 0 1 0 26.2 0 a13.1 13.1 0 1 0 -26.2 0zM763.47 3109.16 a13.1 13.1 0 1 0 26.2 0 a13.1 13.1 0 1 0 -26.2 0zM650.01 3174.66 a13.1 13.1 0 1 0 26.2 0 a13.1 13.1 0 1 0 -26.2 0zM536.56 3109.16 a13.1 13.1 0 1 0 26.2 0 a13.1 13.1 0 1 0 -26.2 0z" fill="url(#SvgjsLinearGradient2616)"></path></g><defs><mask id="SvgjsMask2614"><rect width="600" height="3000" fill="#ffffff"></rect></mask><linearGradient x1="-600" y1="600" x2="1200" y2="2400" gradientUnits="userSpaceOnUse" id="SvgjsLinearGradient2615"><stop stop-color="rgba(176, 0, 47, 1)" offset="0"></stop><stop stop-color="rgba(0, 231, 218, 1)" offset="1"></stop></linearGradient><linearGradient x1="-600" y1="600" x2="1200" y2="2400" gradientUnits="userSpaceOnUse" id="SvgjsLinearGradient2616"><stop stop-color="rgba(0, 125, 255, 1)" offset="0.86"></stop><stop stop-color="rgba(0, 81, 253, 0.82)" offset="0.92"></stop></linearGradient></defs></svg>